<?xml version="1.0" standalone="no"?>
<!DOCTYPE svg PUBLIC "-//W3C//DTD SVG 20010904//EN"
 "http://www.w3.org/TR/2001/REC-SVG-20010904/DTD/svg10.dtd">
<svg version="1.0" xmlns="http://www.w3.org/2000/svg"
 width="512.000000pt" height="1024.000000pt" viewBox="0 0 512.000000 1024.000000"
 preserveAspectRatio="xMidYMid meet">

<g transform="translate(0.000000,1024.000000) scale(0.100000,-0.100000)"
fill="#000000" stroke="none">
<path d="M2200 9009 c-64 -13 -142 -54 -197 -103 -46 -42 -48 -46 -47 -97 1
-118 149 -346 260 -399 90 -44 174 -7 229 101 39 77 79 198 95 286 10 60 2
135 -17 154 -17 16 -160 57 -218 62 -33 3 -80 1 -105 -4z m195 -24 l50 -13
-71 -1 c-82 -1 -222 -24 -290 -47 -25 -8 -47 -14 -49 -12 -8 7 69 53 118 69
61 21 168 23 242 4z m123 -53 c49 -63 -54 -432 -138 -492 -85 -60 -147 -47
-246 54 -56 57 -81 92 -117 167 -25 52 -46 105 -47 119 -3 41 0 74 8 87 11 18
195 72 277 82 101 13 247 3 263 -17z"/>
<path d="M2235 8890 c-45 -7 -160 -48 -153 -56 2 -1 30 7 63 19 46 16 85 21
167 21 59 1 99 4 90 7 -33 12 -118 16 -167 9z"/>
<path d="M2766 9010 c-27 -5 -76 -19 -109 -31 -94 -35 -106 -84 -62 -262 35
-142 94 -259 147 -295 60 -40 130 -38 190 4 100 72 230 285 230 378 0 59 -11
76 -82 129 -90 68 -203 96 -314 77z m190 -25 c52 -16 160 -82 114 -71 -14 4
-59 16 -100 27 -41 11 -124 23 -185 26 -109 7 -110 7 -65 19 63 17 177 17 236
-1z m-106 -35 c96 -12 256 -56 283 -78 54 -46 -29 -258 -151 -382 -76 -77
-122 -97 -184 -80 -58 16 -89 49 -129 134 -69 147 -105 348 -70 390 7 9 34 17
64 19 29 2 63 4 77 5 14 1 64 -3 110 -8z"/>
<path d="M2752 8890 c-29 -4 -55 -10 -57 -12 -2 -1 45 -3 103 -3 88 -1 120 -5
180 -26 39 -14 72 -24 72 -22 0 1 -17 11 -38 22 -73 37 -175 53 -260 41z"/>
<path d="M3269 8841 c-26 -4 -54 -13 -63 -20 -44 -37 -99 -317 -77 -391 14
-49 64 -96 108 -105 47 -9 137 35 236 115 147 118 169 154 136 230 -52 120
-193 191 -340 171z m53 -22 c129 -28 288 -141 288 -204 0 -66 -264 -275 -348
-275 -52 0 -91 26 -113 75 -17 39 -18 53 -9 134 13 116 53 245 83 266 26 18
31 18 99 4z m117 -8 c55 -21 92 -46 123 -86 16 -20 4 -15 -53 23 -41 28 -94
57 -119 66 -29 9 -37 15 -23 16 13 0 45 -8 72 -19z"/>
<path d="M3382 8731 c26 -11 67 -34 90 -52 l43 -33 -29 32 c-31 33 -104 72
-133 72 -10 -1 3 -9 29 -19z"/>
<path d="M1677 8826 c-58 -21 -114 -64 -146 -113 -59 -89 -51 -123 53 -220 78
-74 138 -116 212 -150 50 -23 61 -24 94 -14 45 13 85 57 99 107 16 59 -19 284
-55 346 -29 51 -45 58 -133 58 -47 -1 -103 -7 -124 -14z m32 -20 c-59 -24
-105 -53 -153 -95 l-29 -26 22 33 c27 38 83 78 138 98 64 22 82 15 22 -10z
m189 4 c57 -53 103 -327 68 -401 -19 -41 -62 -69 -105 -69 -89 0 -329 181
-355 267 -16 50 135 169 257 204 82 23 109 23 135 -1z"/>
<path d="M1704 8730 c-22 -11 -56 -37 -75 -57 l-34 -37 44 37 c25 20 67 46 95
56 28 11 42 20 31 20 -11 1 -38 -8 -61 -19z"/>
<path d="M1185 8605 c-78 -28 -135 -125 -135 -230 0 -60 28 -156 53 -183 52
-56 229 -112 358 -114 145 -2 192 112 130 311 -26 85 -75 155 -136 194 -45 29
-57 32 -140 35 -60 1 -103 -3 -130 -13z m262 -31 c89 -55 156 -197 157 -334 1
-75 -22 -118 -74 -140 -63 -26 -270 12 -374 68 -66 36 -88 84 -89 196 -1 136
46 211 147 237 17 4 66 7 108 5 65 -2 85 -7 125 -32z"/>
<path d="M1293 8520 c-18 -11 -33 -23 -33 -26 0 -4 7 -1 15 6 8 7 32 18 52 26
23 8 30 13 18 14 -11 0 -35 -9 -52 -20z"/>
<path d="M1156 8354 c-4 -14 -5 -28 -3 -31 3 -2 8 8 11 23 4 14 5 28 3 31 -3
2 -8 -8 -11 -23z"/>
<path d="M3682 8594 c-28 -14 -63 -39 -77 -56 -87 -103 -131 -301 -87 -388 36
-72 116 -88 268 -56 215 46 276 106 277 276 0 90 -17 144 -61 188 -46 46 -96
62 -194 62 -60 0 -84 -5 -126 -26z m235 1 c98 -29 138 -107 131 -251 -5 -97
-25 -137 -88 -176 -56 -35 -182 -68 -280 -74 -64 -5 -80 -2 -108 16 -38 24
-62 73 -62 128 0 47 33 179 55 221 65 127 203 180 352 136z"/>
<path d="M3783 8530 c16 -5 35 -14 43 -21 8 -6 17 -9 20 -6 8 8 -51 37 -73 36
-11 0 -7 -4 10 -9z"/>
<path d="M3936 8397 c3 -10 9 -15 12 -12 3 3 0 11 -7 18 -10 9 -11 8 -5 -6z"/>
<path d="M3957 8325 c3 -27 7 -52 9 -54 8 -9 2 65 -6 84 -6 13 -7 2 -3 -30z"/>
<path d="M964 8155 c-57 -12 -139 -48 -175 -77 -35 -28 -59 -82 -59 -135 0
-183 146 -292 412 -310 95 -6 98 -5 132 21 82 62 117 144 93 214 -27 78 -179
252 -250 286 -41 19 -70 19 -153 1z m181 -35 c51 -35 120 -111 176 -194 64
-95 54 -162 -36 -245 l-47 -43 -91 7 c-222 18 -350 87 -392 215 -34 103 -2
196 83 239 35 18 128 46 182 55 43 7 80 -3 125 -34z"/>
<path d="M1030 8032 c0 -6 22 -28 49 -48 l49 -37 -29 -25 c-34 -28 -59 -71
-59 -101 0 -19 -5 -20 -67 -16 l-68 4 70 -14 c39 -8 83 -24 98 -36 16 -11 31
-18 34 -15 3 3 -8 13 -26 23 -21 12 -31 26 -31 41 0 36 29 90 61 113 26 18 30
19 65 4 20 -8 44 -15 53 -14 9 0 -6 9 -33 20 -54 22 -96 48 -138 87 -16 14
-28 20 -28 14z"/>
<path d="M4005 8156 c-76 -33 -248 -233 -261 -303 -11 -57 12 -112 71 -170
l52 -53 66 0 c142 0 287 45 373 115 53 44 89 139 82 216 -9 92 -97 165 -235
194 -83 18 -109 18 -148 1z m133 -12 c140 -29 225 -92 239 -177 9 -58 -30
-168 -72 -206 -76 -66 -181 -103 -338 -116 -73 -7 -79 -6 -116 20 -61 42 -95
97 -95 155 0 39 7 59 37 104 54 81 161 191 210 215 50 25 40 25 135 5z"/>
<path d="M4040 8003 c-25 -20 -76 -51 -115 -69 -38 -19 -56 -31 -40 -28 17 4
42 13 57 20 35 18 32 19 73 -17 21 -19 39 -46 46 -72 11 -40 10 -42 -23 -70
l-33 -29 37 22 c20 11 68 28 105 35 l68 15 -66 -4 -66 -3 -11 42 c-7 27 -24
53 -45 71 l-34 29 51 47 c61 56 59 61 -4 11z"/>
<path d="M688 7681 c-72 -23 -151 -73 -180 -114 -62 -87 12 -256 143 -322 106
-54 318 -78 385 -42 78 41 124 133 104 207 -14 51 -112 167 -192 226 -92 67
-155 78 -260 45z m215 -29 c50 -27 173 -149 207 -205 23 -38 26 -106 6 -145
-16 -31 -61 -74 -93 -91 -30 -15 -164 -14 -244 3 -127 27 -204 79 -248 167
-43 86 -43 145 1 194 57 66 195 119 278 109 25 -3 67 -17 93 -32z"/>
<path d="M780 7577 c0 -4 18 -27 41 -52 l40 -44 -25 -38 c-14 -21 -26 -46 -26
-55 0 -15 -10 -18 -67 -20 -58 -1 -61 -2 -18 -5 75 -5 91 -10 130 -44 19 -17
35 -27 35 -21 0 6 -16 23 -37 39 -30 25 -35 34 -29 56 3 14 17 38 29 53 20 23
26 25 44 15 12 -6 28 -11 35 -11 7 1 -8 12 -33 25 -26 13 -63 43 -83 66 -20
24 -36 39 -36 36z"/>
<path d="M958 7443 c7 -3 16 -2 19 1 4 3 -2 6 -13 5 -11 0 -14 -3 -6 -6z"/>
<path d="M4222 7670 c-68 -34 -215 -180 -238 -237 -27 -63 -12 -125 45 -186
45 -50 78 -61 172 -59 105 1 205 23 272 59 127 70 195 231 135 319 -46 67
-188 134 -282 134 -28 0 -65 -11 -104 -30z m228 -9 c106 -40 170 -103 170
-167 0 -86 -73 -195 -159 -238 -107 -54 -312 -74 -381 -37 -55 29 -94 91 -94
150 0 59 23 96 113 188 124 127 217 154 351 104z"/>
<path d="M4290 7531 c-30 -32 -64 -55 -100 -69 -61 -23 -48 -29 15 -7 39 15
41 14 62 -12 38 -47 36 -72 -10 -116 l-42 -38 43 32 c34 26 56 34 110 40 l67
7 -62 -1 c-59 -2 -62 -1 -67 24 -3 14 -16 40 -30 56 l-25 30 35 34 c31 29 61
70 52 69 -2 0 -23 -22 -48 -49z"/>
<path d="M495 7221 c-94 -25 -127 -64 -154 -187 -10 -49 -32 -120 -47 -159
-49 -122 -31 -229 48 -288 45 -34 177 -99 268 -132 84 -30 133 -29 198 4 45
23 59 38 109 121 129 212 125 347 -13 483 -72 70 -132 111 -203 138 -61 22
-160 32 -206 20z m208 -35 c74 -31 129 -68 193 -132 125 -122 134 -251 32
-434 -63 -112 -114 -158 -195 -173 -69 -13 -320 92 -399 168 -34 32 -44 51
-53 97 -12 54 -11 61 19 135 17 43 40 120 51 171 25 122 36 141 104 176 48 25
177 21 248 -8z"/>
<path d="M692 7106 c19 -14 37 -81 38 -137 0 -28 -5 -38 -25 -49 -14 -8 -35
-28 -45 -46 -19 -30 -23 -31 -68 -27 -26 3 -80 16 -119 28 -40 13 -70 19 -67
14 7 -12 119 -45 181 -54 l52 -7 6 -46 c3 -26 10 -64 14 -84 9 -37 8 -38 -37
-68 -65 -43 -106 -48 -145 -19 -21 15 -27 17 -18 5 8 -10 36 -28 63 -42 49
-25 81 -33 40 -10 l-24 13 32 13 c18 7 48 24 68 37 32 23 41 24 96 16 34 -5
73 -6 86 -3 16 4 -1 9 -49 13 -41 3 -80 12 -88 19 -7 7 -16 48 -21 91 -10 90
0 116 62 157 34 23 84 95 73 106 -2 3 -10 -9 -17 -25 -23 -57 -37 -56 -43 1
-3 29 -8 60 -12 70 -4 11 -1 17 10 20 9 2 0 8 -22 15 -31 9 -35 9 -21 -1z"/>
<path d="M4465 7217 c-80 -21 -173 -76 -246 -147 -134 -131 -147 -237 -52
-430 71 -142 150 -211 244 -210 42 1 189 58 287 112 106 59 136 93 151 173 9
45 6 60 -25 149 -18 54 -41 133 -49 175 -9 42 -26 91 -38 109 -44 65 -165 96
-272 69z m220 -37 c34 -21 75 -90 75 -125 0 -33 32 -148 56 -204 41 -92 23
-198 -40 -248 -87 -69 -335 -169 -390 -157 -69 14 -115 46 -155 108 -111 170
-138 296 -86 401 33 69 142 170 230 213 106 53 235 58 310 12z"/>
<path d="M4385 7100 c-15 -6 -16 -9 -4 -9 13 -1 14 -8 6 -53 -15 -81 -17 -86
-30 -64 -7 10 -20 28 -30 40 -15 17 -14 14 3 -22 11 -23 38 -55 59 -70 62 -43
75 -73 67 -152 -10 -107 -10 -107 -121 -120 l-60 -7 60 -1 c33 0 69 3 80 7 14
6 31 1 60 -19 22 -14 55 -32 73 -40 l34 -13 -24 -13 c-12 -7 -18 -13 -13 -14
15 0 112 58 121 72 4 6 -6 2 -23 -10 -39 -27 -63 -28 -116 -1 -59 30 -78 49
-72 70 4 10 9 46 13 80 l7 62 95 22 c94 22 150 40 150 49 0 5 -98 -22 -113
-31 -5 -3 -34 -8 -65 -13 l-57 -7 -49 51 c-45 47 -48 54 -46 96 1 25 8 62 15
82 13 40 12 42 -20 28z"/>
<path d="M330 6497 c-47 -15 -116 -86 -129 -132 -6 -21 -8 -57 -5 -79 4 -24
-1 -78 -11 -126 -18 -90 -15 -151 10 -200 18 -35 78 -67 202 -110 75 -26 80
-29 38 -23 -27 4 -88 8 -135 8 -100 -1 -152 -22 -197 -82 -26 -34 -28 -42 -25
-123 1 -51 -4 -113 -12 -150 -13 -56 -13 -67 0 -99 16 -39 48 -77 77 -93 32
-17 176 -26 260 -16 140 16 183 49 205 154 6 28 20 74 32 103 26 66 26 133 0
187 -23 46 -53 70 -115 91 l-40 13 45 -5 c94 -10 176 30 214 105 31 62 51 176
51 292 0 82 -3 101 -21 125 -27 37 -136 94 -249 131 -113 37 -151 43 -195 29z
m162 -31 c112 -33 253 -102 275 -135 39 -56 10 -345 -42 -423 -67 -101 -211
-103 -425 -7 -85 39 -97 51 -111 114 -10 44 -9 65 5 125 9 40 16 106 16 147 0
81 11 112 57 155 57 54 103 59 225 24z m-71 -652 c127 -21 178 -47 207 -104
28 -56 28 -89 -1 -176 -13 -38 -27 -87 -31 -109 -21 -113 -76 -140 -281 -140
-122 0 -144 3 -174 20 -51 30 -74 79 -66 140 4 28 10 103 13 167 l7 118 36 36
c37 37 102 62 165 63 17 1 73 -6 125 -15z"/>
<path d="M545 6354 c15 -14 25 -34 25 -51 -1 -36 -29 -99 -64 -140 -24 -29
-34 -33 -77 -33 -27 0 -65 7 -85 15 -19 8 -32 10 -29 5 8 -13 65 -30 115 -33
37 -2 45 -7 50 -28 4 -13 14 -38 23 -56 l17 -32 -58 -27 c-31 -16 -66 -31 -77
-35 -18 -6 -17 -7 9 -18 16 -6 31 -9 34 -6 3 3 0 5 -6 5 -7 0 -12 4 -12 9 0
17 120 62 192 71 l73 9 -73 -2 -72 -3 -20 41 c-27 55 -26 67 13 122 41 57 47
73 56 139 l7 50 -33 11 -33 10 25 -23z"/>
<path d="M413 5737 c17 -14 18 -21 8 -69 -7 -29 -22 -71 -34 -93 l-23 -40 -84
-6 c-58 -3 -71 -6 -40 -8 25 -2 62 -2 83 -1 35 1 37 0 37 -28 0 -16 -9 -55
-20 -87 -11 -32 -18 -61 -15 -63 3 -3 5 1 5 8 0 11 3 11 12 2 19 -19 29 -14
16 7 -9 15 -9 28 0 58 11 37 13 38 50 35 21 -2 53 1 72 7 l35 11 -37 -6 c-21
-3 -54 -2 -73 2 -32 6 -35 9 -32 33 2 14 16 51 30 81 15 30 29 75 33 100 4 25
12 48 18 52 7 5 5 8 -6 8 -9 0 -25 3 -35 6 -17 5 -17 5 0 -9z"/>
<path d="M168 5533 c7 -3 16 -2 19 1 4 3 -2 6 -13 5 -11 0 -14 -3 -6 -6z"/>
<path d="M4665 6491 c-82 -20 -211 -71 -273 -108 -28 -16 -49 -37 -58 -59 -29
-69 -6 -321 37 -405 37 -73 129 -116 222 -104 42 6 42 6 -13 -14 -68 -24 -106
-67 -120 -136 -10 -47 -8 -61 14 -126 14 -41 30 -96 36 -123 14 -65 41 -100
91 -120 90 -36 330 -37 385 -2 13 9 36 34 50 56 24 35 26 46 20 92 -4 29 -11
105 -14 168 -8 133 -18 155 -91 198 -40 24 -57 27 -131 27 -47 0 -107 -3 -135
-8 -49 -7 -48 -7 20 17 142 50 200 81 217 117 27 57 30 101 14 172 -9 38 -16
105 -16 150 0 101 -23 148 -90 188 -62 37 -84 40 -165 20z m145 -20 c19 -10
48 -35 65 -55 27 -35 30 -45 37 -149 4 -62 10 -144 14 -182 9 -106 -7 -138
-91 -176 -244 -110 -389 -105 -452 16 -24 45 -44 150 -49 260 -7 135 4 156
106 208 96 48 244 96 295 97 22 0 56 -8 75 -19z m133 -673 c23 -13 51 -38 64
-57 20 -29 22 -45 22 -130 -1 -53 5 -116 12 -139 16 -56 0 -110 -45 -150 -28
-25 -47 -32 -102 -37 -83 -9 -215 -2 -271 15 -59 18 -82 47 -103 133 -10 41
-26 92 -34 112 -34 79 -14 173 45 218 31 23 67 33 219 61 54 10 152 -3 193
-26z"/>
<path d="M4568 6368 c-25 -9 -28 -14 -28 -59 0 -54 22 -106 66 -158 25 -30 26
-35 16 -69 -21 -69 -31 -75 -113 -75 l-74 1 79 -9 c88 -11 191 -52 182 -74 -4
-11 1 -11 26 -3 l31 11 -29 11 c-16 6 -50 21 -76 34 l-47 22 19 43 c11 23 20
49 20 59 0 13 10 16 49 16 44 1 121 23 121 36 0 3 -16 -2 -35 -10 -19 -7 -57
-14 -84 -14 -44 0 -52 4 -81 37 -66 75 -80 157 -32 192 30 23 29 24 -10 9z"/>
<path d="M4675 5740 c-16 -4 -23 -8 -14 -9 12 -1 18 -14 21 -50 3 -27 17 -74
31 -104 37 -74 36 -103 -4 -112 -17 -4 -47 -4 -67 -1 -33 5 -34 4 -12 -5 14
-6 46 -9 72 -6 l46 4 13 -45 c11 -41 11 -46 -6 -58 -10 -8 -14 -14 -9 -14 6 0
16 6 22 12 10 10 15 10 23 -2 9 -12 9 -11 4 5 -21 58 -45 139 -45 151 0 11 18
14 83 15 45 0 90 4 100 8 10 4 -27 5 -82 3 l-101 -4 -25 53 c-35 77 -43 138
-19 156 19 14 15 15 -31 3z"/>
<path d="M285 4656 c-163 -40 -222 -148 -181 -329 8 -34 19 -95 24 -134 13
-93 39 -134 104 -167 95 -47 223 -29 373 52 55 30 74 46 89 77 29 59 32 132 8
196 -11 30 -23 79 -27 109 -9 66 -23 95 -67 137 -72 69 -192 91 -323 59z m225
-11 c85 -30 134 -89 151 -181 5 -32 20 -89 31 -126 20 -60 20 -72 9 -124 -16
-69 -37 -92 -130 -138 -154 -78 -274 -86 -364 -24 -40 29 -57 69 -73 177 -7
53 -18 112 -24 131 -33 111 19 221 125 266 82 34 208 43 275 19z"/>
<path d="M343 4569 c13 -8 17 -23 17 -68 0 -46 7 -71 30 -116 17 -31 30 -61
30 -66 0 -5 -37 -10 -82 -10 l-83 -2 70 -7 c89 -9 98 -13 118 -56 17 -36 23
-114 9 -114 -5 0 -17 -7 -28 -15 -15 -12 -9 -11 31 2 30 10 43 19 33 21 -14 3
-18 14 -18 45 0 24 -9 56 -20 75 -11 18 -20 46 -20 62 l0 30 63 0 c34 0 69 5
77 10 10 6 -2 8 -37 3 -28 -3 -68 -2 -88 1 -31 6 -40 14 -56 49 -22 49 -26
147 -6 148 16 1 -23 17 -43 18 -12 0 -11 -2 3 -10z"/>
<path d="M4594 4654 c-61 -22 -128 -90 -141 -145 -6 -24 -19 -75 -29 -114 -27
-99 -25 -215 2 -252 46 -61 211 -133 322 -141 88 -6 147 14 190 63 35 39 48
77 56 160 4 33 13 85 21 115 22 82 19 129 -12 191 -34 65 -84 102 -168 124
-73 19 -187 18 -241 -1z m263 -19 c122 -37 185 -152 149 -273 -8 -29 -18 -80
-21 -115 -10 -105 -24 -144 -66 -181 -72 -66 -175 -71 -316 -16 -95 37 -153
76 -172 115 -23 47 -26 128 -7 176 9 23 23 75 31 117 8 41 21 85 30 98 20 31
77 74 122 90 47 18 174 12 250 -11z"/>
<path d="M4735 4570 c-19 -8 -19 -9 -1 -9 17 -1 18 -7 13 -60 -2 -32 -13 -75
-22 -94 -15 -31 -23 -37 -62 -43 -24 -3 -63 -4 -86 -1 -27 4 -36 2 -26 -4 7
-5 42 -9 77 -9 61 0 62 0 62 -27 0 -16 -9 -41 -20 -58 -11 -16 -23 -51 -26
-77 -4 -27 -12 -48 -18 -49 -15 -1 46 -28 64 -28 8 0 3 6 -11 14 -23 12 -26
19 -22 56 5 44 25 93 44 104 6 4 43 11 82 15 l72 8 -74 -1 c-52 0 -76 4 -79
12 -2 7 8 36 23 63 20 37 29 70 33 119 3 52 9 69 21 72 12 3 10 5 -4 5 -11 0
-29 -3 -40 -8z"/>
<path d="M513 4006 c-189 -48 -296 -166 -280 -309 7 -58 120 -291 165 -339 67
-73 154 -75 324 -9 242 95 264 151 155 410 -60 143 -98 195 -169 232 -49 25
-131 31 -195 15z m182 -25 c84 -39 113 -80 190 -275 40 -102 46 -127 42 -170
-4 -44 -10 -55 -49 -91 -46 -40 -191 -104 -287 -126 -64 -14 -127 -2 -167 33
-44 39 -162 264 -175 335 -25 132 64 244 236 299 61 19 163 17 210 -5z"/>
<path d="M532 3923 c22 -6 30 -29 22 -69 -8 -43 -15 -47 -89 -55 l-60 -7 74 1
c72 2 74 1 102 -33 33 -38 63 -119 54 -143 -6 -14 -37 -33 -96 -56 -13 -5 -17
-10 -9 -10 8 0 34 8 57 18 39 18 42 18 57 2 43 -47 60 -142 29 -160 -26 -15
-10 -13 28 4 19 8 26 14 17 15 -13 0 -18 8 -18 30 0 32 -15 71 -42 111 -12 19
-16 37 -12 57 6 28 11 31 48 35 l41 4 -46 1 c-44 2 -48 4 -62 40 -9 21 -27 52
-41 69 -24 29 -25 35 -18 92 l9 61 -31 -1 c-17 -1 -24 -3 -14 -6z"/>
<path d="M748 3673 c7 -3 16 -2 19 1 4 3 -2 6 -13 5 -11 0 -14 -3 -6 -6z"/>
<path d="M4460 4011 c-99 -30 -157 -95 -215 -236 -88 -215 -91 -256 -27 -327
39 -43 97 -73 233 -119 100 -33 157 -36 214 -10 54 25 62 35 145 197 68 132
73 144 73 206 0 115 -50 187 -166 242 -101 47 -197 65 -257 47z m185 -31 c116
-40 191 -101 215 -175 19 -59 9 -152 -25 -215 -15 -30 -46 -90 -68 -132 -82
-164 -156 -180 -392 -87 -164 64 -209 122 -179 235 8 30 20 67 28 82 8 15 28
63 45 108 55 143 130 204 252 204 40 0 89 -8 124 -20z"/>
<path d="M4551 3868 c5 -56 4 -66 -16 -88 -13 -14 -33 -45 -45 -69 l-22 -44
-61 6 c-37 3 -54 1 -42 -3 11 -5 39 -9 61 -9 39 -1 42 -3 46 -33 4 -22 -2 -42
-18 -66 -22 -32 -44 -91 -44 -119 0 -7 -8 -13 -17 -14 -10 0 -2 -7 17 -14 42
-16 62 -18 38 -4 -33 19 -19 102 26 162 14 18 16 18 53 -1 21 -11 57 -23 78
-26 32 -5 27 -2 -20 13 -65 22 -105 52 -105 79 0 27 45 115 69 137 19 16 36
19 94 18 l72 -1 -67 7 c-38 4 -71 11 -74 14 -4 4 -9 29 -12 56 -4 42 -2 50 14
54 14 3 13 5 -6 6 -26 1 -26 1 -19 -61z"/>
<path d="M4658 3533 c6 -2 18 -2 25 0 6 3 1 5 -13 5 -14 0 -19 -2 -12 -5z"/>
<path d="M715 3327 c-117 -30 -217 -104 -228 -168 -3 -19 -11 -89 -18 -156
l-13 -122 37 -73 c72 -147 188 -258 268 -258 61 0 216 55 304 107 140 84 156
137 100 313 -73 227 -122 306 -210 339 -71 27 -175 34 -240 18z m213 -22 c97
-29 139 -89 211 -299 59 -170 55 -238 -19 -300 -45 -37 -183 -102 -272 -128
-67 -19 -82 -20 -119 -9 -77 23 -200 166 -244 284 -16 42 -17 58 -7 135 6 48
14 109 17 136 6 62 22 86 80 126 97 67 239 89 353 55z"/>
<path d="M810 3230 c-8 -5 -26 -10 -40 -11 -24 -2 -24 -2 -2 -6 19 -4 22 -10
22 -56 0 -72 -8 -81 -56 -68 -22 6 -50 11 -64 10 -14 0 5 -8 42 -18 41 -10 83
-30 105 -48 48 -38 78 -107 69 -157 -7 -35 -8 -36 -50 -36 -43 0 -103 -15
-120 -31 -5 -4 13 -1 39 7 101 30 153 12 181 -61 17 -45 13 -65 -11 -65 -8 0
-17 -5 -21 -12 -5 -8 -2 -9 12 -4 10 5 39 15 64 22 36 11 39 13 13 11 -29 -3
-32 0 -38 30 -3 18 -19 48 -34 66 -26 29 -28 38 -24 83 l5 52 52 7 c28 3 65
13 81 21 17 8 21 12 10 8 -43 -12 -120 -21 -136 -15 -9 3 -39 31 -67 62 -50
55 -51 57 -41 94 6 21 8 51 5 66 -4 21 0 31 17 43 24 16 12 22 -13 6z"/>
<path d="M4233 3330 c-144 -30 -185 -81 -274 -339 -44 -127 -48 -176 -19 -235
40 -83 293 -206 422 -206 105 0 294 235 293 364 -1 110 -23 259 -43 285 -72
98 -249 159 -379 131z m207 -29 c71 -27 148 -79 164 -110 15 -28 41 -232 38
-291 -3 -50 -52 -144 -116 -221 -57 -70 -104 -105 -153 -115 -70 -14 -324 88
-393 158 -28 28 -50 81 -50 123 0 32 94 298 123 347 14 23 37 54 51 67 63 59
235 80 336 42z"/>
<path d="M4293 3225 c11 -8 17 -26 17 -51 0 -22 4 -54 9 -71 9 -30 7 -35 -19
-53 -16 -11 -38 -36 -49 -54 -12 -19 -31 -36 -43 -39 -20 -6 -89 4 -133 18
-14 4 -12 2 5 -9 14 -8 50 -17 82 -21 l56 -7 4 -50 c3 -44 -1 -55 -23 -80 -15
-15 -31 -45 -36 -65 -8 -34 -12 -38 -38 -36 -24 2 -21 -1 14 -12 77 -25 89
-27 59 -10 -32 18 -34 31 -14 79 27 65 73 78 175 51 30 -8 50 -10 45 -6 -17
15 -77 31 -119 31 -46 0 -55 10 -55 60 0 89 71 159 190 187 l55 13 -50 -5
c-27 -3 -59 -6 -69 -7 -15 -2 -22 6 -29 35 -12 50 -2 85 25 89 14 2 4 7 -27
14 -38 9 -45 9 -32 -1z"/>
<path d="M990 2602 c-161 -54 -241 -131 -257 -247 -13 -100 66 -203 174 -226
131 -27 260 12 360 108 64 62 80 111 63 184 -38 155 -183 233 -340 181z m212
-23 c68 -35 118 -123 118 -208 0 -40 -6 -57 -33 -93 -72 -95 -212 -157 -323
-144 -194 23 -276 172 -179 326 28 44 60 68 130 99 118 52 211 59 287 20z"/>
<path d="M1039 2524 c-7 -8 -30 -24 -51 -35 -54 -28 -47 -32 13 -7 47 20 54
20 78 7 38 -21 61 -74 61 -142 0 -55 -1 -59 -35 -78 -19 -12 -35 -22 -35 -24
0 -1 28 7 63 19 46 15 57 22 40 24 -21 3 -23 8 -23 60 0 31 -3 67 -6 78 -4 15
2 29 18 45 l23 23 -25 -16 c-24 -15 -27 -14 -53 8 -16 13 -34 24 -42 24 -9 0
-12 6 -9 15 8 19 0 19 -17 -1z"/>
<path d="M3948 2606 c-21 -7 -49 -21 -62 -30 -55 -35 -106 -133 -106 -200 1
-78 78 -169 189 -223 50 -25 67 -28 156 -28 107 1 132 8 194 61 45 38 64 80
64 145 0 112 -64 193 -196 248 -92 38 -183 48 -239 27z m134 -7 c29 -6 85 -26
123 -43 108 -50 165 -126 165 -221 0 -60 -19 -103 -63 -142 -49 -43 -98 -58
-192 -58 -71 0 -89 4 -147 33 -81 40 -162 123 -172 177 -18 96 70 232 165 253
60 13 61 13 121 1z"/>
<path d="M4055 2519 c-70 -58 -68 -58 -95 -41 l-25 16 23 -25 c20 -23 21 -29
11 -58 -6 -18 -9 -52 -5 -77 5 -43 5 -44 -22 -44 -21 -1 -17 -4 23 -19 28 -10
59 -21 70 -25 11 -4 3 3 -17 15 -38 23 -38 23 -38 90 0 81 11 110 52 133 31
19 40 18 101 -8 22 -10 36 -12 32 -7 -3 6 -11 11 -16 11 -5 0 -26 11 -47 24
-21 13 -41 19 -47 15z"/>
<path d="M1225 2160 c-123 -27 -182 -66 -221 -147 -47 -96 -34 -183 36 -241
70 -58 206 -88 283 -63 83 28 155 153 165 288 4 62 2 75 -18 102 -12 17 -35
38 -51 47 -36 18 -140 26 -194 14z m196 -33 c61 -41 72 -93 44 -202 -45 -171
-136 -237 -286 -205 -158 34 -227 150 -166 283 44 96 142 145 293 146 68 1 86
-3 115 -22z"/>
<path d="M1243 2071 c-7 -11 -30 -29 -50 -40 -50 -27 -31 -27 23 0 41 19 45
20 78 4 22 -10 42 -32 57 -61 21 -39 22 -46 10 -66 -41 -66 -41 -69 2 -23 48
52 57 68 33 59 -8 -3 -18 7 -26 26 -14 33 -58 75 -89 85 -11 3 -21 13 -23 21
-2 11 -6 10 -15 -5z"/>
<path d="M3728 2159 c-48 -14 -94 -66 -102 -116 -9 -49 24 -177 60 -239 54
-92 156 -125 277 -90 157 46 214 162 148 303 -31 65 -69 96 -159 127 -56 20
-178 28 -224 15z m229 -31 c45 -15 79 -34 103 -58 36 -37 70 -115 70 -163 0
-156 -263 -257 -391 -149 -50 41 -91 141 -96 237 -5 78 -5 81 23 109 40 39 57
45 146 45 54 1 98 -6 145 -21z"/>
<path d="M3859 2073 c-2 -5 -22 -18 -44 -29 -27 -14 -46 -34 -60 -62 -14 -30
-25 -41 -38 -38 -16 4 13 -36 66 -89 14 -15 -13 37 -30 57 -13 15 -13 22 8 60
15 27 37 50 61 61 36 18 38 18 77 -2 22 -12 46 -21 53 -21 7 1 -5 10 -27 21
-22 10 -45 26 -51 35 -7 8 -14 11 -15 7z"/>
<path d="M1610 1841 c-117 -38 -223 -109 -256 -172 -33 -65 5 -183 80 -244 35
-28 43 -30 119 -30 118 0 173 23 200 84 18 39 21 66 22 171 0 143 -12 180 -66
199 -39 13 -32 14 -99 -8z m105 -7 c42 -17 63 -132 46 -257 -14 -100 -30 -131
-80 -150 -51 -21 -131 -31 -176 -23 -49 10 -104 61 -132 124 -29 65 -29 94 -1
143 51 91 265 193 343 163z"/>
<path d="M1429 1604 c15 -30 65 -70 122 -100 68 -34 75 -30 9 7 -30 16 -75 49
-99 72 -25 24 -39 33 -32 21z"/>
<path d="M3393 1841 c-44 -28 -56 -79 -51 -216 7 -181 42 -222 199 -232 67 -5
82 -3 118 17 61 35 119 130 121 198 0 30 -32 91 -62 118 -55 50 -187 116 -258
128 -26 5 -44 1 -67 -13z m190 -43 c91 -44 163 -107 178 -157 9 -30 7 -45 -11
-94 -44 -118 -118 -160 -243 -139 -40 7 -82 20 -95 28 -35 23 -53 76 -59 174
-7 108 2 171 29 205 19 25 26 27 73 23 32 -3 82 -19 128 -40z"/>
<path d="M3655 1581 c-17 -17 -57 -46 -89 -65 -66 -40 -68 -48 -3 -15 43 22
106 72 120 96 12 20 4 16 -28 -16z"/>
<path d="M1947 1659 c-53 -35 -127 -113 -169 -178 -21 -33 -28 -57 -28 -93 0
-41 5 -54 38 -90 71 -79 160 -97 282 -55 91 31 97 45 81 195 -7 62 -19 136
-27 162 -27 92 -94 114 -177 59z m136 -8 c24 -23 44 -104 56 -224 11 -106 5
-139 -28 -156 -48 -26 -190 -2 -291 49 -57 29 -60 32 -60 66 0 20 8 52 17 72
20 43 169 197 203 211 32 14 80 5 103 -18z m-116 -395 l68 -13 -46 -7 c-56 -9
-108 4 -160 40 -56 38 -48 47 16 18 30 -14 85 -31 122 -38z"/>
<path d="M1840 1380 c30 -24 134 -60 169 -59 16 0 3 7 -34 18 -33 9 -82 27
-110 39 -46 20 -48 21 -25 2z"/>
<path d="M3042 1674 c-34 -24 -50 -64 -67 -166 -19 -119 -19 -197 0 -225 9
-12 44 -31 81 -43 123 -41 230 -12 292 80 31 46 26 113 -12 168 -32 47 -155
170 -188 188 -32 18 -79 17 -106 -2z m91 -5 c84 -44 211 -192 222 -259 5 -27
3 -46 -6 -56 -35 -43 -188 -94 -282 -94 -38 0 -53 5 -74 26 -25 25 -25 28 -18
107 13 156 31 229 65 260 33 29 59 34 93 16z m165 -384 c-52 -48 -131 -66
-198 -45 -25 8 -24 8 5 9 41 2 121 24 175 49 60 27 61 27 18 -13z"/>
<path d="M3225 1368 c-27 -11 -70 -27 -95 -34 l-45 -14 42 4 c24 2 71 18 105
34 72 35 67 41 -7 10z"/>
<path d="M2308 1610 c-21 -23 -58 -82 -83 -133 -37 -76 -45 -103 -45 -148 0
-64 10 -77 85 -110 94 -42 252 -4 275 66 22 67 -43 276 -105 338 -41 40 -79
37 -127 -13z m117 6 c52 -52 105 -197 105 -290 0 -68 -24 -80 -154 -80 -60 1
-117 6 -141 15 -38 13 -40 16 -43 63 -3 41 4 63 47 151 51 105 103 165 142
165 11 0 31 -11 44 -24z m14 -391 c-13 -13 -139 -13 -161 1 -13 7 8 10 76 9
63 0 91 -3 85 -10z"/>
<path d="M2285 1315 c32 -15 114 -18 155 -5 16 5 -3 7 -55 7 -44 0 -91 3 -105
6 -20 6 -20 4 5 -8z"/>
<path d="M2688 1631 c-50 -39 -118 -223 -118 -317 0 -41 28 -72 86 -94 70 -26
129 -25 199 1 101 38 110 107 32 263 -75 149 -137 195 -199 147z m91 -7 c50
-35 151 -235 151 -298 0 -19 -7 -41 -15 -49 -34 -34 -227 -44 -301 -16 -31 11
-36 49 -18 136 27 133 92 243 143 243 9 0 27 -7 40 -16z m71 -394 c-25 -16
-88 -22 -132 -13 -42 8 -41 8 32 14 41 3 84 6 95 7 16 1 17 0 5 -8z"/>
<path d="M2800 1320 c-25 -4 -67 -6 -95 -4 -49 4 -49 4 -15 -7 41 -13 136 -7
152 9 7 7 10 11 8 11 -3 -1 -25 -5 -50 -9z"/>
</g>
</svg>
